<svg id="visual" viewBox="0 0 900 600" width="900" height="600" xmlns="http://www.w3.org/2000/svg" xmlns:xlink="http://www.w3.org/1999/xlink" version="1.1"><rect x="0" y="0" width="900" height="600" fill="#140021"></rect><path d="M0 322L60 322L60 353L120 353L120 303L180 303L180 388L240 388L240 326L300 326L300 372L360 372L360 406L420 406L420 339L480 339L480 343L540 343L540 420L600 420L600 304L660 304L660 326L720 326L720 414L780 414L780 395L840 395L840 333L900 333L900 395L900 601L900 601L840 601L840 601L780 601L780 601L720 601L720 601L660 601L660 601L600 601L600 601L540 601L540 601L480 601L480 601L420 601L420 601L360 601L360 601L300 601L300 601L240 601L240 601L180 601L180 601L120 601L120 601L60 601L60 601L0 601Z" fill="#9900ff"></path><path d="M0 407L60 407L60 461L120 461L120 392L180 392L180 448L240 448L240 434L300 434L300 380L360 380L360 409L420 409L420 452L480 452L480 420L540 420L540 367L600 367L600 420L660 420L660 446L720 446L720 383L780 383L780 397L840 397L840 366L900 366L900 445L900 601L900 601L840 601L840 601L780 601L780 601L720 601L720 601L660 601L660 601L600 601L600 601L540 601L540 601L480 601L480 601L420 601L420 601L360 601L360 601L300 601L300 601L240 601L240 601L180 601L180 601L120 601L120 601L60 601L60 601L0 601Z" fill="#8200d9"></path><path d="M0 459L60 459L60 447L120 447L120 448L180 448L180 508L240 508L240 457L300 457L300 456L360 456L360 466L420 466L420 506L480 506L480 482L540 482L540 432L600 432L600 448L660 448L660 430L720 430L720 453L780 453L780 452L840 452L840 438L900 438L900 446L900 601L900 601L840 601L840 601L780 601L780 601L720 601L720 601L660 601L660 601L600 601L600 601L540 601L540 601L480 601L480 601L420 601L420 601L360 601L360 601L300 601L300 601L240 601L240 601L180 601L180 601L120 601L120 601L60 601L60 601L0 601Z" fill="#6c00b4"></path><path d="M0 499L60 499L60 560L120 560L120 491L180 491L180 532L240 532L240 540L300 540L300 546L360 546L360 505L420 505L420 494L480 494L480 560L540 560L540 554L600 554L600 515L660 515L660 540L720 540L720 494L780 494L780 553L840 553L840 541L900 541L900 503L900 601L900 601L840 601L840 601L780 601L780 601L720 601L720 601L660 601L660 601L600 601L600 601L540 601L540 601L480 601L480 601L420 601L420 601L360 601L360 601L300 601L300 601L240 601L240 601L180 601L180 601L120 601L120 601L60 601L60 601L0 601Z" fill="#560090"></path></svg>