<svg id="visual" viewBox="0 0 900 600" width="900" height="600" xmlns="http://www.w3.org/2000/svg" xmlns:xlink="http://www.w3.org/1999/xlink" version="1.1"><g stroke-width="1" stroke-linejoin="bevel"><path d="M504 270L526 154L352 189Z" fill="#19435d" stroke="#19435d"></path><path d="M352 189L341 291L504 270Z" fill="#19435d" stroke="#19435d"></path><path d="M526 154L365 0L352 189Z" fill="#1d4e6b" stroke="#1d4e6b"></path><path d="M352 189L177 272L341 291Z" fill="#00101c" stroke="#00101c"></path><path d="M526 154L548 0L365 0Z" fill="#246688" stroke="#246688"></path><path d="M365 0L196 124L352 189Z" fill="#15384f" stroke="#15384f"></path><path d="M196 124L177 272L352 189Z" fill="#112e42" stroke="#112e42"></path><path d="M354 478L504 270L341 291Z" fill="#15384f" stroke="#15384f"></path><path d="M354 478L558 452L504 270Z" fill="#297ea6" stroke="#297ea6"></path><path d="M718 273L722 182L526 154Z" fill="#00101c" stroke="#00101c"></path><path d="M526 154L695 0L548 0Z" fill="#277297" stroke="#277297"></path><path d="M718 273L526 154L504 270Z" fill="#277297" stroke="#277297"></path><path d="M558 452L718 273L504 270Z" fill="#277297" stroke="#277297"></path><path d="M169 440L354 478L341 291Z" fill="#112e42" stroke="#112e42"></path><path d="M365 0L200 0L196 124Z" fill="#19435d" stroke="#19435d"></path><path d="M196 124L0 148L177 272Z" fill="#00101c" stroke="#00101c"></path><path d="M722 182L695 0L526 154Z" fill="#15384f" stroke="#15384f"></path><path d="M177 272L169 440L341 291Z" fill="#112e42" stroke="#112e42"></path><path d="M558 452L694 475L718 273Z" fill="#19435d" stroke="#19435d"></path><path d="M549 600L694 475L558 452Z" fill="#19435d" stroke="#19435d"></path><path d="M154 600L372 600L354 478Z" fill="#19435d" stroke="#19435d"></path><path d="M354 478L549 600L558 452Z" fill="#0c2435" stroke="#0c2435"></path><path d="M372 600L549 600L354 478Z" fill="#19435d" stroke="#19435d"></path><path d="M0 0L0 148L196 124Z" fill="#19435d" stroke="#19435d"></path><path d="M177 272L0 336L169 440Z" fill="#1d4e6b" stroke="#1d4e6b"></path><path d="M718 273L900 151L722 182Z" fill="#00101c" stroke="#00101c"></path><path d="M722 182L900 151L695 0Z" fill="#297ea6" stroke="#297ea6"></path><path d="M900 336L900 151L718 273Z" fill="#205a7a" stroke="#205a7a"></path><path d="M0 148L0 336L177 272Z" fill="#246688" stroke="#246688"></path><path d="M169 440L154 600L354 478Z" fill="#15384f" stroke="#15384f"></path><path d="M900 470L900 336L694 475Z" fill="#205a7a" stroke="#205a7a"></path><path d="M694 475L900 336L718 273Z" fill="#277297" stroke="#277297"></path><path d="M200 0L0 0L196 124Z" fill="#19435d" stroke="#19435d"></path><path d="M0 443L154 600L169 440Z" fill="#19435d" stroke="#19435d"></path><path d="M900 151L900 0L695 0Z" fill="#15384f" stroke="#15384f"></path><path d="M549 600L740 600L694 475Z" fill="#277297" stroke="#277297"></path><path d="M0 336L0 443L169 440Z" fill="#1d4e6b" stroke="#1d4e6b"></path><path d="M740 600L900 470L694 475Z" fill="#19435d" stroke="#19435d"></path><path d="M0 443L0 600L154 600Z" fill="#205a7a" stroke="#205a7a"></path><path d="M740 600L900 600L900 470Z" fill="#19435d" stroke="#19435d"></path></g></svg>